<svg xmlns="http://www.w3.org/2000/svg" width="1400" height="820" viewBox="0 0 1400 820" role="img" aria-labelledby="title desc">
<title id="title">AXM Command Dashboard</title><desc id="desc">Static SVG approximation generated by AXM AetherFX Visual Effect Fabric.</desc>
<defs>
 <linearGradient id="bg" x1="0" y1="0" x2="1" y2="1"><stop stop-color="#050814"/><stop offset=".55" stop-color="#07111e"/><stop offset="1" stop-color="#03040a"/></linearGradient>
 <linearGradient id="edge" x1="0" y1="0" x2="1" y2="1"><stop stop-color="#58e6ff"/><stop offset=".55" stop-color="#a56cff"/><stop offset="1" stop-color="#ff75d8"/></linearGradient>
 <radialGradient id="halo"><stop stop-color="#58e6ff" stop-opacity="0.24480000000000002"/><stop offset="1" stop-color="#58e6ff" stop-opacity="0"/></radialGradient>
 <filter id="soft"><feGaussianBlur stdDeviation="3.00"/></filter>
 <filter id="glow"><feGaussianBlur stdDeviation="4.64" result="b"/><feMerge><feMergeNode in="b"/><feMergeNode in="SourceGraphic"/></feMerge></filter>
 <pattern id="grid" width="36" height="36" patternUnits="userSpaceOnUse"><path d="M36 0H0V36" fill="none" stroke="#58e6ff" stroke-opacity=".055"/></pattern>
</defs>
<rect width="100%" height="100%" fill="url(#bg)"/><rect width="100%" height="100%" fill="url(#grid)"/><ellipse cx="952" cy="230" rx="420" ry="287" fill="url(#halo)" filter="url(#soft)"/><circle cx="41" cy="73" r="1.0" fill="#a56cff" opacity="0.18"/><circle cx="138" cy="224" r="1.45" fill="#58e6ff" opacity="0.24"/><circle cx="235" cy="375" r="1.9" fill="#58e6ff" opacity="0.30"/><circle cx="332" cy="526" r="2.35" fill="#a56cff" opacity="0.36"/><circle cx="429" cy="677" r="1.0" fill="#58e6ff" opacity="0.42"/><circle cx="526" cy="8" r="1.45" fill="#58e6ff" opacity="0.18"/><circle cx="623" cy="159" r="1.9" fill="#a56cff" opacity="0.24"/><circle cx="720" cy="310" r="2.35" fill="#58e6ff" opacity="0.30"/><circle cx="817" cy="461" r="1.0" fill="#58e6ff" opacity="0.36"/><circle cx="914" cy="612" r="1.45" fill="#a56cff" opacity="0.42"/><circle cx="1011" cy="763" r="1.9" fill="#58e6ff" opacity="0.18"/><circle cx="1108" cy="94" r="2.35" fill="#58e6ff" opacity="0.24"/><circle cx="1205" cy="245" r="1.0" fill="#a56cff" opacity="0.30"/><circle cx="1302" cy="396" r="1.45" fill="#58e6ff" opacity="0.36"/><circle cx="1399" cy="547" r="1.9" fill="#58e6ff" opacity="0.42"/><circle cx="96" cy="698" r="2.35" fill="#a56cff" opacity="0.18"/><circle cx="193" cy="29" r="1.0" fill="#58e6ff" opacity="0.24"/><circle cx="290" cy="180" r="1.45" fill="#58e6ff" opacity="0.30"/><circle cx="387" cy="331" r="1.9" fill="#a56cff" opacity="0.36"/><circle cx="484" cy="482" r="2.35" fill="#58e6ff" opacity="0.42"/><circle cx="581" cy="633" r="1.0" fill="#58e6ff" opacity="0.18"/><circle cx="678" cy="784" r="1.45" fill="#a56cff" opacity="0.24"/><circle cx="775" cy="115" r="1.9" fill="#58e6ff" opacity="0.30"/><circle cx="872" cy="266" r="2.35" fill="#58e6ff" opacity="0.36"/><circle cx="969" cy="417" r="1.0" fill="#a56cff" opacity="0.42"/><circle cx="1066" cy="568" r="1.45" fill="#58e6ff" opacity="0.18"/><circle cx="1163" cy="719" r="1.9" fill="#58e6ff" opacity="0.24"/><circle cx="1260" cy="50" r="2.35" fill="#a56cff" opacity="0.30"/><circle cx="1357" cy="201" r="1.0" fill="#58e6ff" opacity="0.36"/><circle cx="54" cy="352" r="1.45" fill="#58e6ff" opacity="0.42"/><circle cx="151" cy="503" r="1.9" fill="#a56cff" opacity="0.18"/><circle cx="248" cy="654" r="2.35" fill="#58e6ff" opacity="0.24"/><circle cx="345" cy="805" r="1.0" fill="#58e6ff" opacity="0.30"/><circle cx="442" cy="136" r="1.45" fill="#a56cff" opacity="0.36"/><circle cx="539" cy="287" r="1.9" fill="#58e6ff" opacity="0.42"/><circle cx="636" cy="438" r="2.35" fill="#58e6ff" opacity="0.18"/><circle cx="733" cy="589" r="1.0" fill="#a56cff" opacity="0.24"/><circle cx="830" cy="740" r="1.45" fill="#58e6ff" opacity="0.30"/><rect x="70" y="120" width="1260" height="630" rx="30" fill="#09121e" fill-opacity=".70" stroke="url(#edge)" stroke-opacity="0.62" stroke-width="2" filter="url(#glow)"/><rect x="92" y="142" width="1216" height="586" rx="22" fill="#07101b" fill-opacity=".68" stroke="#58e6ff" stroke-opacity=".13"/><text x="118" y="190" font-family="system-ui,sans-serif" font-size="16" letter-spacing="5" fill="#58e6ff">AXM VISUAL EFFECT FABRIC</text><text x="118" y="248" font-family="system-ui,sans-serif" font-size="42" font-weight="700" fill="#f4f8ff">AXM Command Dashboard</text><text x="118" y="282" font-family="system-ui,sans-serif" font-size="16" fill="#a9b9cc">scene.dashboard · static high approximation · 11 resolved modules</text><rect x="118.0" y="330.0" width="365.3" height="122" rx="18" fill="#0b1725" fill-opacity=".78" stroke="#58e6ff" stroke-opacity=".24"/><rect x="136.0" y="348.0" width="42" height="42" rx="12" fill="#58e6ff" fill-opacity=".12" stroke="#58e6ff" stroke-opacity=".4"/><text x="194.0" y="372.0" font-family="system-ui,sans-serif" font-size="17" font-weight="650" fill="#eaf4ff">Aetherglass Panel</text><rect x="194.0" y="388.0" width="265.3" height="7" rx="4" fill="#9db3c9" opacity=".22"/><rect x="194.0" y="408.0" width="180.4" height="7" rx="4" fill="#a56cff" opacity=".28"/><rect x="505.3" y="330.0" width="365.3" height="122" rx="18" fill="#0b1725" fill-opacity=".78" stroke="#a56cff" stroke-opacity=".24"/><rect x="523.3" y="348.0" width="42" height="42" rx="12" fill="#58e6ff" fill-opacity=".12" stroke="#58e6ff" stroke-opacity=".4"/><text x="581.3" y="372.0" font-family="system-ui,sans-serif" font-size="17" font-weight="650" fill="#eaf4ff">Neon Edge Glow</text><rect x="581.3" y="388.0" width="265.3" height="7" rx="4" fill="#9db3c9" opacity=".22"/><rect x="581.3" y="408.0" width="180.4" height="7" rx="4" fill="#a56cff" opacity=".28"/><rect x="892.7" y="330.0" width="365.3" height="122" rx="18" fill="#0b1725" fill-opacity=".78" stroke="#58e6ff" stroke-opacity=".24"/><rect x="910.7" y="348.0" width="42" height="42" rx="12" fill="#58e6ff" fill-opacity=".12" stroke="#58e6ff" stroke-opacity=".4"/><text x="968.7" y="372.0" font-family="system-ui,sans-serif" font-size="17" font-weight="650" fill="#eaf4ff">Ambient Backwash</text><rect x="968.7" y="388.0" width="265.3" height="7" rx="4" fill="#9db3c9" opacity=".22"/><rect x="968.7" y="408.0" width="180.4" height="7" rx="4" fill="#a56cff" opacity=".28"/><rect x="118.0" y="480.0" width="365.3" height="122" rx="18" fill="#0b1725" fill-opacity=".78" stroke="#a56cff" stroke-opacity=".24"/><rect x="136.0" y="498.0" width="42" height="42" rx="12" fill="#58e6ff" fill-opacity=".12" stroke="#58e6ff" stroke-opacity=".4"/><text x="194.0" y="522.0" font-family="system-ui,sans-serif" font-size="17" font-weight="650" fill="#eaf4ff">Soft Bloom Halo</text><rect x="194.0" y="538.0" width="265.3" height="7" rx="4" fill="#9db3c9" opacity=".22"/><rect x="194.0" y="558.0" width="180.4" height="7" rx="4" fill="#a56cff" opacity=".28"/><rect x="505.3" y="480.0" width="365.3" height="122" rx="18" fill="#0b1725" fill-opacity=".78" stroke="#58e6ff" stroke-opacity=".24"/><rect x="523.3" y="498.0" width="42" height="42" rx="12" fill="#58e6ff" fill-opacity=".12" stroke="#58e6ff" stroke-opacity=".4"/><text x="581.3" y="522.0" font-family="system-ui,sans-serif" font-size="17" font-weight="650" fill="#eaf4ff">Reflection Streak</text><rect x="581.3" y="538.0" width="265.3" height="7" rx="4" fill="#9db3c9" opacity=".22"/><rect x="581.3" y="558.0" width="180.4" height="7" rx="4" fill="#a56cff" opacity=".28"/><rect x="892.7" y="480.0" width="365.3" height="122" rx="18" fill="#0b1725" fill-opacity=".78" stroke="#a56cff" stroke-opacity=".24"/><rect x="910.7" y="498.0" width="42" height="42" rx="12" fill="#58e6ff" fill-opacity=".12" stroke="#58e6ff" stroke-opacity=".4"/><text x="968.7" y="522.0" font-family="system-ui,sans-serif" font-size="17" font-weight="650" fill="#eaf4ff">Layered Depth Shadow</text><rect x="968.7" y="538.0" width="265.3" height="7" rx="4" fill="#9db3c9" opacity=".22"/><rect x="968.7" y="558.0" width="180.4" height="7" rx="4" fill="#a56cff" opacity=".28"/><rect width="100%" height="100%" fill="none" stroke="#000" stroke-opacity=".55" stroke-width="70"/><text x="1330" y="788" text-anchor="end" font-family="system-ui,sans-serif" font-size="13" fill="#8192a7">Approximation: 1 interaction operations unsupported; exact browser blending is not preserved.</text></svg>